<?xml version="1.0"?>
<svg viewBox="0 0 432 101" version="1.1" xmlns="http://www.w3.org/2000/svg" xmlns:xlink="http://www.w3.org/1999/xlink" width="432" height="101"> <style> .logo-text { fill: #FFFFFF; } </style> <g fill-rule="nonzero"> <g class="logo-text" transform="translate(349.000000, 24.000000)"> <polygon points="40.21 43.86 35.21 43.86 35.21 51.5 22.49 51.5 22.49 43.86 0.56 43.86 0.56 32.21 15.49 1.49 29.63 1.49 14.56 32.21 22.49 32.21 22.49 23.21 35.21 23.21 35.21 32.21 40.21 32.21"></polygon> <path d="M47.99,42.21 L64.56,24.71 C67.35,21.71 69.35,19.42 69.35,16.99 C69.35,14.63 67.78,12.85 64.92,12.85 C61.78,12.85 59.56,14.92 58.21,18.07 L47.21,11.93 C50.57,4.07 57.5,0.43 64.78,0.43 C73.78,0.43 82.14,6.07 82.14,16.29 C82.14,22.58 78.71,27.29 74.14,32.08 L67.35,39.15 L83,39.15 L83,51.51 L47.99,51.51 L47.99,42.21 Z" id="Path"></path> </g> <g class="logo-text" transform="translate(111.000000, 5.000000)"> <path d="M0.62,45.5 C0.62,30.68 11.84,19.27 26.95,19.27 C36.86,19.27 45.27,24.48 48.88,32.39 L43.47,35.49 C40.77,29.58 34.46,25.68 26.95,25.68 C15.84,25.68 7.22,34.39 7.22,45.51 C7.22,56.63 15.83,65.34 26.95,65.34 C34.56,65.34 40.67,61.34 43.87,55.53 L49.38,58.73 C45.28,66.64 36.76,71.75 26.95,71.75 C11.84,71.73 0.62,60.32 0.62,45.5 Z" id="Path"></path> <path d="M55.89,45.5 C55.89,30.68 67.61,19.27 82.22,19.27 C96.84,19.27 108.55,30.69 108.55,45.5 C108.55,60.31 96.83,71.73 82.22,71.73 C67.61,71.73 55.89,60.32 55.89,45.5 Z M101.95,45.5 C101.95,34.39 93.34,25.67 82.22,25.67 C71.11,25.67 62.49,34.38 62.49,45.5 C62.49,56.62 71.1,65.33 82.22,65.33 C93.34,65.33 101.95,56.61 101.95,45.5 Z" id="Shape"></path> <path d="M169.03,0.44 L169.03,70.53 L162.42,70.53 L162.42,60.72 C158.22,67.43 151.1,71.73 142.19,71.73 C128.07,71.73 116.36,60.31 116.36,45.5 C116.36,30.69 128.08,19.27 142.19,19.27 C151.1,19.27 158.21,23.58 162.42,30.28 L162.42,0.44 L169.03,0.44 Z M162.43,45.5 C162.43,34.39 153.82,25.67 142.7,25.67 C131.59,25.67 122.97,34.38 122.97,45.5 C122.97,56.62 131.58,65.33 142.7,65.33 C153.82,65.33 162.43,56.61 162.43,45.5 Z" id="Shape"></path> <path d="M229.01,45.7 C229.01,46.7 228.91,47.8 228.81,48.8 L184.85,48.8 C186.25,59.01 194.16,65.32 204.78,65.32 C212.69,65.32 218.2,61.61 220.9,56.81 L226.71,60.21 C222.51,67.02 214.79,71.73 204.68,71.73 C188.86,71.73 178.04,60.62 178.04,45.5 C178.04,30.78 188.65,19.27 204.17,19.27 C219.5,19.27 229.01,31.98 229.01,45.7 Z M184.85,42.4 L222.2,42.4 C220.8,31.39 212.79,25.6799892 204.18,25.6799892 C193.66,25.67 186.15,32.58 184.85,42.4 Z" id="Shape"></path> </g> <path d="M43.38,86.34 C50.25,86.34 56.9,87.29 63.2,89.08 C58.81,91.63 43.34,100.57 43.34,100.57 C43.34,100.57 29.01,92.3 23.48,89.1 C29.82,87.3 36.49,86.34 43.38,86.34 Z M19.62,15.15 C19.73,14.75 19.83,14.35 19.93,13.95 C15.64,16.43 0,25.46 0,25.46 C0,25.46 0,43.46 0,48.45 C4.73,43.86 8.91,38.55 12.36,32.57 C15.6,26.97 18,21.12 19.62,15.15 Z M86.71,67.22 C86.72,70.57 86.72,75.53 86.72,75.53 C86.72,75.53 81.96,78.28 79.54,79.68 C68.52,74.67 56.28,71.88 43.38,71.88 C30.48,71.88 18.23,74.67 7.21,79.69 C4.56,78.16 -7.10542736e-15,75.54 -7.10542736e-15,75.54 C-7.10542736e-15,75.54 -7.10542736e-15,71.05 -7.10542736e-15,67.27 C8.56,61.17 16.13,53.43 22.2,44.19 C23.13,42.77 24.03,41.31 24.9,39.82 C31.35,28.64 35.06,16.63 36.23,4.57 C38.54,3.23 43.36,0.44 43.36,0.44 C43.36,0.44 48.33,3.32 50.6,4.63 C51.77,16.68 55.47,28.68 61.92,39.84 C68.35,50.99 76.88,60.19 86.71,67.22 Z M56.93,58.32 C54.18,54.77 51.66,51.01 49.38,47.06 C49.35,47.01 49.32,46.96 49.3,46.92 C47.04,43 45.08,38.99 43.4,34.91 C41.7,39.04 39.7,43.1 37.42,47.04 C35.14,50.99 32.61,54.76 29.85,58.32 C34.26,57.71 38.79,57.41 43.38,57.41 C47.98,57.41 52.51,57.72 56.93,58.32 Z M66.88,14.01 C67.11,14.93 67.36,15.85 67.64,16.77 C69.24,22.19 71.5,27.49 74.44,32.59 C77.87,38.54 82.02,43.82 86.72,48.38 C86.72,41.82 86.72,25.45 86.72,25.45 C86.72,25.45 71.07,16.43 66.88,14.01 Z" id="Shape" fill="#F05323"></path> </g> </svg> 